# xmcd CD database file
#
# Track frame offsets:
#	150
#	52685
#	99975
#	171872
#
# Disc length: 2667 seconds
#
# Revision: 0
# Processed by: cddbd v1.5.1PL0 Copyright (c) Steve Scherf et al.
# Submitted via: CDex 1.60beta1
#
DISCID=230a6904
DTITLE=Art Blakey and The Jazz Messengers - Dr. Jeckyle: Live At Sweet Basil
DYEAR=1985
DGENRE=Jazz
TTITLE0=Fuller Love
TTITLE1=Dr.Jeckyle
TTITLE2=81
TTITLE3=One By One
EXTD=YEAR: 1985
EXTT0=
EXTT1=
EXTT2=
EXTT3=
PLAYORDER=
